<?xml version="1.0" standalone="no"?><!DOCTYPE svg PUBLIC "-//W3C//DTD SVG 1.1//EN" "http://www.w3.org/Graphics/SVG/1.1/DTD/svg11.dtd"><svg t="1504253281915" class="icon" style="" viewBox="0 0 1024 1024" version="1.1" xmlns="http://www.w3.org/2000/svg" p-id="3499" xmlns:xlink="http://www.w3.org/1999/xlink" width="200" height="200"><defs><style type="text/css"></style></defs><path d="M511.999388 20.835981c-277.005277 0-501.558743 224.564486-501.558743 501.585683 0 277.013849 224.553465 501.578336 501.558743 501.578336s501.559967-224.564486 501.559967-501.578336C1013.559355 245.399243 789.004665 20.835981 511.999388 20.835981zM250.345263 247.931644 395.800372 247.931644l0 145.455109L250.345263 393.386753 250.345263 247.931644zM395.800372 796.901888 250.345263 796.901888l0-145.453884L395.800372 651.448003 395.800372 796.901888zM320.39408 567.88733l-9.178118 10.629228-71.285629-61.561354 22.554047-26.118757 46.265307 39.953897 86.437177-86.012253 24.345586 24.45947L320.39408 567.88733zM784.068442 750.056136 448.585266 750.056136l0-51.763606 335.483176 0L784.068442 750.056136zM784.068442 541.25793 448.585266 541.25793l0-51.759933 335.483176 0L784.068442 541.25793zM784.068442 346.541002 448.585266 346.541002 448.585266 294.777396l335.483176 0L784.068442 346.541002z" p-id="3500" fill="#973444"></path></svg>